<svg class="color-immutable" xmlns="http://www.w3.org/2000/svg" width="59" height="20" fill="none" viewBox="0 0 59 20"><g clip-path="url(#a)"><path stroke="#000" d="M.5 2A1.5 1.5 0 0 1 2 .5h55A1.5 1.5 0 0 1 58.5 2v16a1.5 1.5 0 0 1-1.5 1.5H2A1.5 1.5 0 0 1 .5 18z"/><path fill="#000" d="m 4.16,4.234 h 5.6 c 1.108,0 1.957,0.174 2.547,0.522 0.49,0.2846667 0.864667,0.6643333 1.124,1.139 0.258,0.4746667 0.387,1.01 0.387,1.606 0,0.6753333 -0.163333,1.2633333 -0.49,1.764 -0.322,0.5006667 -0.773,0.859333 -1.353,1.076 0.497366,0.116136 0.929314,0.422773 1.203,0.854 0.184,0.28 0.307667,0.572667 0.371,0.878 0.06333,0.305333 0.145,1.004 0.245,2.096 0.074,0.802 0.187333,1.300333 0.34,1.495 l 0.111,0.135 H 11.611 C 11.51142,15.602915 11.444857,15.391748 11.414,15.174 11.37667,14.920667 11.32667,14.335333 11.264,13.418 11.200667,12.6 11,12.035667 10.662,11.725 10.33,11.408333 9.7603333,11.25 8.953,11.25 H 6.683 V 15.8 H 4.16 Z M 6.683,6.219 V 9.4 h 2.413 c 0.7746667,0 1.320333,-0.1106667 1.637,-0.332 0.400667,-0.28 0.601,-0.702 0.601,-1.266 C 11.334,7.254 11.162667,6.8533333 10.82,6.6 10.477333,6.3466667 9.9373333,6.2196667 9.2,6.219 ZM20.12 4.221V16h-2.352V8.29h-2.772V6.582q.862-.024 1.402-.177.547-.154 1-.5.652-.5.877-1.684zM31.142 4.221v2.095h-4.745l-.508 2.65q.855-.902 2.183-.902 1.306 0 2.272.701 1.434 1.056 1.434 3.207 0 2.11-1.53 3.343-1.192.967-2.853.967-1.869 0-3.005-.999-1.136-1.007-1.2-2.715h2.312q.057.62.403 1.055.54.685 1.499.685.926 0 1.466-.669.524-.652.524-1.587 0-1.014-.548-1.62-.549-.61-1.459-.611-1.11 0-1.732.999l-2.103-.033 1.12-6.566z"/></g><defs><clipPath id="a"><path fill="#fff" d="M0 0h59v20H0z"/></clipPath></defs></svg>