<?xml version="1.0" encoding="UTF-8" standalone="no"?>
<svg
   class="color-immutable"
   width="59"
   height="20"
   fill="none"
   viewBox="0 0 59 20"
   version="1.1"
   id="svg3"
   xmlns="http://www.w3.org/2000/svg"
   xmlns:svg="http://www.w3.org/2000/svg">
  <g
     clip-path="url(#a)"
     id="g2">
    <path
       stroke="#000000"
       d="M 0.5,2 A 1.5,1.5 0 0 1 2,0.5 H 57 A 1.5,1.5 0 0 1 58.5,2 V 18 A 1.5,1.5 0 0 1 57,19.5 H 2 A 1.5,1.5 0 0 1 0.5,18 Z"
       id="path1" />
    <path
       fill="#000000"
       d="m 4.16,4.234 h 5.6 c 1.108,0 1.957,0.174 2.547,0.522 0.49,0.2846667 0.864667,0.6643333 1.124,1.139 0.258,0.4746667 0.387,1.01 0.387,1.606 0,0.6753333 -0.163333,1.2633333 -0.49,1.764 -0.322,0.5006667 -0.773,0.859333 -1.353,1.076 0.497366,0.116136 0.929314,0.422773 1.203,0.854 0.184,0.28 0.307667,0.572667 0.371,0.878 0.06333,0.305333 0.145,1.004 0.245,2.096 0.074,0.802 0.187333,1.300333 0.34,1.495 l 0.111,0.135 H 11.611 C 11.51142,15.602915 11.444857,15.391748 11.414,15.174 11.37667,14.920667 11.32667,14.335333 11.264,13.418 11.200667,12.6 11,12.035667 10.662,11.725 10.33,11.408333 9.7603333,11.25 8.953,11.25 H 6.683 V 15.8 H 4.16 Z M 6.683,6.219 V 9.4 h 2.413 c 0.7746667,0 1.320333,-0.1106667 1.637,-0.332 0.400667,-0.28 0.601,-0.702 0.601,-1.266 C 11.334,7.254 11.162667,6.8533333 10.82,6.6 10.477333,6.3466667 9.9373333,6.2196667 9.2,6.219 Z m 17.862,7.686 V 16 h -8.483 c 0,-0.64 0.102,-1.249667 0.306,-1.829 0.21,-0.58 0.502667,-1.079333 0.878,-1.498 0.29,-0.322667 0.628333,-0.637 1.015,-0.943 0.392,-0.306 1.168333,-0.867333 2.329,-1.684 0.563333,-0.392 0.958,-0.7573333 1.184,-1.096 0.228598,-0.3489833 0.346413,-0.7588961 0.338,-1.176 0,-0.5153333 -0.153,-0.9316667 -0.459,-1.249 -0.3,-0.322 -0.697333,-0.483 -1.192,-0.483 -1.214,0 -1.839667,0.8726667 -1.877,2.618 H 16.32 V 8.403 c 0,-1.4293333 0.4,-2.536 1.2,-3.32 0.779333,-0.7626667 1.786333,-1.144 3.021,-1.144 1.096,0 2.012,0.3116667 2.748,0.935 0.8,0.6766667 1.2,1.587 1.2,2.731 0,0.9986667 -0.319667,1.858 -0.959,2.578 -0.209333,0.236 -0.405333,0.426667 -0.588,0.572 -0.182667,0.14 -0.663333,0.481 -1.442,1.023 -0.741333,0.515333 -1.273,0.910333 -1.595,1.185 -0.325912,0.283767 -0.622714,0.599329 -0.886,0.942 z"
       id="path2" />
  </g>
  <defs
     id="defs3">
    <clipPath
       id="a">
      <path
         fill="#ffffff"
         d="M 0,0 H 59 V 20 H 0 Z"
         id="path3" />
    </clipPath>
  </defs>
</svg>
