<svg class="color-immutable" xmlns="http://www.w3.org/2000/svg" width="59" height="20" fill="none" viewBox="0 0 59 20"><g clip-path="url(#a)"><path stroke="#000" d="M.5 2A1.5 1.5 0 0 1 2 .5h55A1.5 1.5 0 0 1 58.5 2v16a1.5 1.5 0 0 1-1.5 1.5H2A1.5 1.5 0 0 1 .5 18z"/><path fill="#000" d="m 4.16,4.234 h 5.6 c 1.108,0 1.957,0.174 2.547,0.522 0.49,0.2846667 0.864667,0.6643333 1.124,1.139 0.258,0.4746667 0.387,1.01 0.387,1.606 0,0.6753333 -0.163333,1.2633333 -0.49,1.764 -0.322,0.5006667 -0.773,0.859333 -1.353,1.076 0.497366,0.116136 0.929314,0.422773 1.203,0.854 0.184,0.28 0.307667,0.572667 0.371,0.878 0.06333,0.305333 0.145,1.004 0.245,2.096 0.074,0.802 0.187333,1.300333 0.34,1.495 l 0.111,0.135 H 11.611 C 11.51142,15.602915 11.444857,15.391748 11.414,15.174 11.37667,14.920667 11.32667,14.335333 11.264,13.418 11.200667,12.6 11,12.035667 10.662,11.725 10.33,11.408333 9.7603333,11.25 8.953,11.25 H 6.683 V 15.8 H 4.16 Z M 6.683,6.219 V 9.4 h 2.413 c 0.7746667,0 1.320333,-0.1106667 1.637,-0.332 0.400667,-0.28 0.601,-0.702 0.601,-1.266 C 11.334,7.254 11.162667,6.8533333 10.82,6.6 10.477333,6.3466667 9.9373333,6.2196667 9.2,6.219 ZM22.545 13.905V16h-8.483q0-.96.306-1.829.315-.87.878-1.498.435-.484 1.015-.943.588-.459 2.329-1.684.845-.588 1.184-1.096a2.07 2.07 0 0 0 .338-1.176q0-.773-.459-1.249-.45-.483-1.192-.483-1.821 0-1.877 2.618H14.32v-.257q0-2.144 1.2-3.32 1.169-1.144 3.021-1.144 1.644 0 2.748.935 1.2 1.015 1.2 2.731 0 1.498-.959 2.578-.314.354-.588.572-.274.21-1.442 1.023-1.112.773-1.595 1.185a6.5 6.5 0 0 0-.886.942zM31.835 11.32v1.99h-1.483V16h-2.296v-2.69h-4.914v-2.208l5.035-6.88h2.175v7.097zm-3.73.023V6.96l-3.03 4.383z"/></g><defs><clipPath id="a"><path fill="#fff" d="M0 0h59v20H0z"/></clipPath></defs></svg>