<?xml version="1.0" encoding="UTF-8" standalone="no"?>
<svg
   class="color-immutable"
   width="59"
   height="20"
   fill="none"
   viewBox="0 0 59 20"
   version="1.1"
   id="svg3"
   xmlns="http://www.w3.org/2000/svg"
   xmlns:svg="http://www.w3.org/2000/svg">
  <g
     clip-path="url(#a)"
     id="g2">
    <path
       stroke="#000000"
       d="M 0.5,2 A 1.5,1.5 0 0 1 2,0.5 H 57 A 1.5,1.5 0 0 1 58.5,2 V 18 A 1.5,1.5 0 0 1 57,19.5 H 2 A 1.5,1.5 0 0 1 0.5,18 Z"
       id="path1" />
    <path
       fill="#000000"
       d="m 4.16,4.234 h 5.6 c 1.108,0 1.957,0.174 2.547,0.522 0.49,0.2846667 0.864667,0.6643333 1.124,1.139 0.258,0.4746667 0.387,1.01 0.387,1.606 0,0.6753333 -0.163333,1.2633333 -0.49,1.764 -0.322,0.5006667 -0.773,0.859333 -1.353,1.076 0.497366,0.116136 0.929314,0.422773 1.203,0.854 0.184,0.28 0.307667,0.572667 0.371,0.878 0.06333,0.305333 0.145,1.004 0.245,2.096 0.074,0.802 0.187333,1.300333 0.34,1.495 l 0.111,0.135 H 11.611 C 11.51142,15.602915 11.444857,15.391748 11.414,15.174 11.37667,14.920667 11.32667,14.335333 11.264,13.418 11.200667,12.6 11,12.035667 10.662,11.725 10.33,11.408333 9.7603333,11.25 8.953,11.25 H 6.683 V 15.8 H 4.16 Z M 6.683,6.219 V 9.4 h 2.413 c 0.7746667,0 1.320333,-0.1106667 1.637,-0.332 0.400667,-0.28 0.601,-0.702 0.601,-1.266 C 11.334,7.254 11.162667,6.8533333 10.82,6.6 10.477333,6.3466667 9.9373333,6.2196667 9.2,6.219 Z m 9.629,1.732 c 0.026,-0.966 0.265,-1.777 0.717,-2.433 0.73,-1.052 1.828333,-1.5783333 3.295,-1.579 1.128,0 2.038,0.2873333 2.73,0.862 0.747333,0.6233333 1.120667,1.429 1.12,2.417 0,0.5906667 -0.147333,1.101 -0.442,1.531 -0.281252,0.4178314 -0.700868,0.7230711 -1.185,0.862 0.634,0.1446667 1.133667,0.467 1.499,0.967 0.370667,0.5 0.556,1.104333 0.556,1.813 0,1.164667 -0.43,2.118 -1.29,2.86 -0.794667,0.686667 -1.798667,1.030333 -3.012,1.031 -1.316,0 -2.361,-0.378667 -3.135,-1.136 -0.767333,-0.756667 -1.151333,-1.78 -1.152,-3.07 v -0.153 h 2.264 c 0,0.725333 0.172,1.286667 0.516,1.684 0.344,0.392 0.83,0.588 1.458,0.588 0.628667,0 1.112,-0.185333 1.45,-0.556 0.312,-0.349333 0.468,-0.765333 0.468,-1.248 0,-0.58 -0.198667,-1.039333 -0.596,-1.378 -0.328,-0.28 -0.833,-0.419667 -1.515,-0.419 -0.193333,0 -0.384,0.01067 -0.572,0.032 V 8.894 c 0.14,0.01 0.274333,0.015333 0.403,0.016 1.353333,0 2.03,-0.502 2.03,-1.506 0,-0.44 -0.147667,-0.7946667 -0.443,-1.064 -0.296,-0.2733333 -0.685333,-0.41 -1.168,-0.41 -0.553333,0 -0.980333,0.1716667 -1.281,0.515 -0.300667,0.344 -0.462,0.846 -0.484,1.506 z"
       id="path2" />
  </g>
  <defs
     id="defs3">
    <clipPath
       id="a">
      <path
         fill="#ffffff"
         d="M 0,0 H 59 V 20 H 0 Z"
         id="path3" />
    </clipPath>
  </defs>
</svg>
