<?xml version="1.0" encoding="UTF-8" standalone="no"?>
<svg
   class="color-immutable"
   width="59"
   height="20"
   fill="none"
   viewBox="0 0 59 20"
   version="1.1"
   id="svg3"
   xmlns="http://www.w3.org/2000/svg"
   xmlns:svg="http://www.w3.org/2000/svg">
  <g
     clip-path="url(#a)"
     id="g2">
    <path
       stroke="#000000"
       d="M 0.5,2 A 1.5,1.5 0 0 1 2,0.5 H 57 A 1.5,1.5 0 0 1 58.5,2 V 18 A 1.5,1.5 0 0 1 57,19.5 H 2 A 1.5,1.5 0 0 1 0.5,18 Z"
       id="path1" />
    <path
       fill="#000000"
       d="m 4.16,4.234 h 5.6 c 1.108,0 1.957,0.174 2.547,0.522 0.49,0.2846667 0.864667,0.6643333 1.124,1.139 0.258,0.4746667 0.387,1.01 0.387,1.606 0,0.6753333 -0.163333,1.2633333 -0.49,1.764 -0.322,0.5006667 -0.773,0.859333 -1.353,1.076 0.497366,0.116136 0.929314,0.422773 1.203,0.854 0.184,0.28 0.307667,0.572667 0.371,0.878 0.06333,0.305333 0.145,1.004 0.245,2.096 0.074,0.802 0.187333,1.300333 0.34,1.495 l 0.111,0.135 H 11.611 C 11.51142,15.602915 11.444857,15.391748 11.414,15.174 11.37667,14.920667 11.32667,14.335333 11.264,13.418 11.200667,12.6 11,12.035667 10.662,11.725 10.33,11.408333 9.7603333,11.25 8.953,11.25 H 6.683 V 15.8 H 4.16 Z M 6.683,6.219 V 9.4 h 2.413 c 0.7746667,0 1.320333,-0.1106667 1.637,-0.332 0.400667,-0.28 0.601,-0.702 0.601,-1.266 C 11.334,7.254 11.162667,6.8533333 10.82,6.6 10.477333,6.3466667 9.9373333,6.2196667 9.2,6.219 Z M 23.957,4.221 v 2.095 h -4.745 l -0.508,2.65 c 0.569333,-0.6013333 1.297333,-0.902 2.184,-0.902 0.87,0 1.627333,0.2336667 2.272,0.701 0.956,0.704 1.434,1.773 1.434,3.207 0,1.406667 -0.510333,2.521 -1.531,3.343 -0.795333,0.644667 -1.746,0.967 -2.852,0.967 -1.246667,0 -2.248333,-0.333 -3.005,-0.999 -0.758,-0.671333 -1.158,-1.576333 -1.2,-2.715 h 2.312 c 0.03667,0.413333 0.170667,0.765 0.402,1.055 0.36,0.456667 0.859667,0.685 1.499,0.685 0.617333,0 1.106,-0.223 1.466,-0.669 0.35,-0.434667 0.524667,-0.963667 0.524,-1.587 0,-0.676 -0.182667,-1.216 -0.548,-1.62 -0.364667,-0.406667 -0.850667,-0.6103333 -1.458,-0.611 -0.741333,0 -1.318667,0.333 -1.732,0.999 l -2.103,-0.033 1.12,-6.566 z"
       id="path2" />
  </g>
  <defs
     id="defs3">
    <clipPath
       id="a">
      <path
         fill="#ffffff"
         d="M 0,0 H 59 V 20 H 0 Z"
         id="path3" />
    </clipPath>
  </defs>
</svg>
