<?xml version="1.0" encoding="UTF-8" standalone="no"?>
<svg
   class="color-immutable"
   width="59"
   height="20"
   fill="none"
   viewBox="0 0 59 20"
   version="1.1"
   id="svg3"
   xmlns="http://www.w3.org/2000/svg"
   xmlns:svg="http://www.w3.org/2000/svg">
  <g
     clip-path="url(#a)"
     id="g2">
    <path
       stroke="#000000"
       d="M 0.5,2 A 1.5,1.5 0 0 1 2,0.5 H 57 A 1.5,1.5 0 0 1 58.5,2 V 18 A 1.5,1.5 0 0 1 57,19.5 H 2 A 1.5,1.5 0 0 1 0.5,18 Z"
       id="path1" />
    <path
       fill="#000000"
       d="m 4.16,4.234 h 5.6 c 1.108,0 1.957,0.174 2.547,0.522 0.49,0.2846667 0.864667,0.6643333 1.124,1.139 0.258,0.4746667 0.387,1.01 0.387,1.606 0,0.6753333 -0.163333,1.2633333 -0.49,1.764 -0.322,0.5006667 -0.773,0.859333 -1.353,1.076 0.497366,0.116136 0.929314,0.422773 1.203,0.854 0.184,0.28 0.307667,0.572667 0.371,0.878 0.06333,0.305333 0.145,1.004 0.245,2.096 0.074,0.802 0.187333,1.300333 0.34,1.495 l 0.111,0.135 H 11.611 C 11.51142,15.602915 11.444857,15.391748 11.414,15.174 11.37667,14.920667 11.32667,14.335333 11.264,13.418 11.200667,12.6 11,12.035667 10.662,11.725 10.33,11.408333 9.7603333,11.25 8.953,11.25 H 6.683 V 15.8 H 4.16 Z M 6.683,6.219 V 9.4 h 2.413 c 0.7746667,0 1.320333,-0.1106667 1.637,-0.332 0.400667,-0.28 0.601,-0.702 0.601,-1.266 C 11.334,7.254 11.162667,6.8533333 10.82,6.6 10.477333,6.3466667 9.9373333,6.2196667 9.2,6.219 Z m 17.661,0.943 h -2.24 C 21.894667,6.254 21.379,5.8 20.557,5.8 c -0.87,0 -1.487667,0.5346667 -1.853,1.604 -0.149333,0.4353333 -0.27,1.093 -0.362,1.973 0.354,-0.478 0.73,-0.8213333 1.128,-1.03 0.402667,-0.21 0.886,-0.315 1.45,-0.315 1.106,0 1.995,0.392 2.667,1.176 0.638667,0.7406667 0.958,1.67 0.958,2.788 0,1.326667 -0.429667,2.392667 -1.289,3.198 -0.773333,0.725333 -1.702333,1.088 -2.787,1.088 -1.391333,0 -2.473667,-0.523667 -3.247,-1.571 -0.773333,-1.053333 -1.16,-2.519667 -1.16,-4.399 0,-2.0093333 0.413333,-3.583 1.24,-4.721 0.8,-1.1013333 1.893333,-1.652 3.28,-1.652 1.304667,0 2.303667,0.4376667 2.997,1.313 0.396667,0.5053333 0.651667,1.142 0.765,1.91 M 20.356,9.86 c -0.564,0 -1.012667,0.236333 -1.346,0.709 -0.3,0.418667 -0.45,0.918 -0.45,1.498 0,0.574667 0.153,1.077 0.459,1.507 0.333333,0.478 0.79,0.717 1.37,0.717 0.563333,0 1.016667,-0.228333 1.36,-0.685 0.322667,-0.43 0.484,-0.937333 0.484,-1.522 0,-0.575333 -0.145,-1.067 -0.435,-1.475 -0.354,-0.5 -0.834667,-0.75 -1.442,-0.75"
       id="path2" />
  </g>
  <defs
     id="defs3">
    <clipPath
       id="a">
      <path
         fill="#ffffff"
         d="M 0,0 H 59 V 20 H 0 Z"
         id="path3" />
    </clipPath>
  </defs>
</svg>
