<?xml version="1.0" encoding="UTF-8" standalone="no"?>
<svg
   class="color-immutable"
   width="59"
   height="20"
   fill="none"
   viewBox="0 0 59 20"
   version="1.1"
   id="svg3"
   xmlns="http://www.w3.org/2000/svg"
   xmlns:svg="http://www.w3.org/2000/svg">
  <g
     clip-path="url(#a)"
     id="g2">
    <path
       stroke="#000000"
       d="M 0.5,2 A 1.5,1.5 0 0 1 2,0.5 H 57 A 1.5,1.5 0 0 1 58.5,2 V 18 A 1.5,1.5 0 0 1 57,19.5 H 2 A 1.5,1.5 0 0 1 0.5,18 Z"
       id="path1" />
    <path
       fill="#000000"
       d="m 4.16,4.234 h 5.6 c 1.108,0 1.957,0.174 2.547,0.522 0.49,0.2846667 0.864667,0.6643333 1.124,1.139 0.258,0.4746667 0.387,1.01 0.387,1.606 0,0.6753333 -0.163333,1.2633333 -0.49,1.764 -0.322,0.5006667 -0.773,0.859333 -1.353,1.076 0.497366,0.116136 0.929314,0.422773 1.203,0.854 0.184,0.28 0.307667,0.572667 0.371,0.878 0.06333,0.305333 0.145,1.004 0.245,2.096 0.074,0.802 0.187333,1.300333 0.34,1.495 l 0.111,0.135 H 11.611 C 11.51142,15.602915 11.444857,15.391748 11.414,15.174 11.37667,14.920667 11.32667,14.335333 11.264,13.418 11.200667,12.6 11,12.035667 10.662,11.725 10.33,11.408333 9.7603333,11.25 8.953,11.25 H 6.683 V 15.8 H 4.16 Z M 6.683,6.219 V 9.4 h 2.413 c 0.7746667,0 1.320333,-0.1106667 1.637,-0.332 0.400667,-0.28 0.601,-0.702 0.601,-1.266 C 11.334,7.254 11.162667,6.8533333 10.82,6.6 10.477333,6.3466667 9.9373333,6.2196667 9.2,6.219 Z M 24.255,4.221 V 6.22 c -0.192762,0.2158225 -0.383437,0.4334993 -0.572,0.653 -0.44,0.5046667 -0.877667,1.1413333 -1.313,1.91 -0.406025,0.6998179 -0.745833,1.436012 -1.015,2.199 -0.510667,1.466667 -0.819667,3.139667 -0.927,5.019 h -2.433 c 0.01667,-0.886667 0.17,-1.869667 0.46,-2.949 0.294667,-1.08 0.7,-2.159333 1.216,-3.238 0.736,-1.526 1.482667,-2.662 2.24,-3.408 h -5.56 V 4.22 Z"
       id="path2" />
  </g>
  <defs
     id="defs3">
    <clipPath
       id="a">
      <path
         fill="#ffffff"
         d="M 0,0 H 59 V 20 H 0 Z"
         id="path3" />
    </clipPath>
  </defs>
</svg>
