<?xml version="1.0" encoding="UTF-8" standalone="no"?>
<svg
   class="color-immutable"
   width="59"
   height="20"
   fill="none"
   viewBox="0 0 59 20"
   version="1.1"
   id="svg3"
   xmlns="http://www.w3.org/2000/svg"
   xmlns:svg="http://www.w3.org/2000/svg">
  <g
     clip-path="url(#a)"
     id="g2">
    <path
       stroke="#000000"
       d="M 0.5,2 A 1.5,1.5 0 0 1 2,0.5 H 57 A 1.5,1.5 0 0 1 58.5,2 V 18 A 1.5,1.5 0 0 1 57,19.5 H 2 A 1.5,1.5 0 0 1 0.5,18 Z"
       id="path1" />
    <path
       fill="#000000"
       d="m 4.16,4.234 h 5.6 c 1.108,0 1.957,0.174 2.547,0.522 0.49,0.2846667 0.864667,0.6643333 1.124,1.139 0.258,0.4746667 0.387,1.01 0.387,1.606 0,0.6753333 -0.163333,1.2633333 -0.49,1.764 -0.322,0.5006667 -0.773,0.859333 -1.353,1.076 0.497366,0.116136 0.929314,0.422773 1.203,0.854 0.184,0.28 0.307667,0.572667 0.371,0.878 0.06333,0.305333 0.145,1.004 0.245,2.096 0.074,0.802 0.187333,1.300333 0.34,1.495 l 0.111,0.135 H 11.611 C 11.51142,15.602915 11.444857,15.391748 11.414,15.174 11.37667,14.920667 11.32667,14.335333 11.264,13.418 11.200667,12.6 11,12.035667 10.662,11.725 10.33,11.408333 9.7603333,11.25 8.953,11.25 H 6.683 V 15.8 H 4.16 Z M 6.683,6.219 V 9.4 h 2.413 c 0.7746667,0 1.320333,-0.1106667 1.637,-0.332 0.400667,-0.28 0.601,-0.702 0.601,-1.266 C 11.334,7.254 11.162667,6.8533333 10.82,6.6 10.477333,6.3466667 9.9373333,6.2196667 9.2,6.219 Z M 18.108,9.676 C 17.56,9.488 17.138333,9.179 16.843,8.749 16.553,8.3196667 16.408,7.7986667 16.408,7.186 c 0,-1.02 0.419,-1.8336667 1.257,-2.441 0.740667,-0.5373333 1.621667,-0.806 2.643,-0.806 1.16,0 2.108,0.3196667 2.844,0.959 0.698,0.6013333 1.047,1.3453333 1.047,2.232 0,0.6166667 -0.147667,1.1456667 -0.443,1.587 -0.296,0.44 -0.715,0.7596667 -1.257,0.959 0.424,0.1233333 0.770667,0.2816667 1.04,0.475 0.746667,0.542667 1.12,1.335 1.12,2.377 0,1.196667 -0.459333,2.15 -1.378,2.86 -0.774,0.596 -1.767667,0.894 -2.981,0.894 -1.316667,0 -2.364,-0.327667 -3.142,-0.983 -0.811333,-0.682 -1.217,-1.576333 -1.217,-2.683 0,-1.036667 0.36,-1.839667 1.08,-2.409 0.327333,-0.2526667 0.689667,-0.4296667 1.087,-0.531 m 2.167,-3.908 c -0.515333,0 -0.931333,0.145 -1.248,0.435 -0.317333,0.2846667 -0.476,0.6606667 -0.476,1.128 0,0.4886667 0.158667,0.8806667 0.476,1.176 0.322,0.29 0.751667,0.435 1.289,0.435 0.537333,0 0.961667,-0.145 1.273,-0.435 0.311333,-0.2893333 0.467,-0.684 0.467,-1.184 0,-0.4886667 -0.158333,-0.87 -0.475,-1.144 -0.312,-0.2733333 -0.747333,-0.41 -1.306,-0.41 m -0.016,4.794 c -0.58,0 -1.055333,0.18 -1.426,0.54 -0.365333,0.353333 -0.548,0.81 -0.548,1.37 0,0.574 0.185333,1.041 0.556,1.401 0.376,0.36 0.862333,0.54 1.459,0.54 0.676667,0 1.184,-0.198667 1.522,-0.596 0.328,-0.381333 0.492,-0.822 0.492,-1.322 0,-0.569333 -0.188,-1.036333 -0.564,-1.401 -0.36,-0.354667 -0.856667,-0.532 -1.49,-0.532"
       id="path2" />
  </g>
  <defs
     id="defs3">
    <clipPath
       id="a">
      <path
         fill="#ffffff"
         d="M 0,0 H 59 V 20 H 0 Z"
         id="path3" />
    </clipPath>
  </defs>
</svg>
