<svg class="color-immutable" xmlns="http://www.w3.org/2000/svg" width="59" height="20" fill="none" viewBox="0 0 59 20"><g clip-path="url(#a)"><path stroke="#000" d="M.5 2A1.5 1.5 0 0 1 2 .5h55A1.5 1.5 0 0 1 58.5 2v16a1.5 1.5 0 0 1-1.5 1.5H2A1.5 1.5 0 0 1 .5 18z"/><path fill="#000" d="m 4.16,4.234 h 5.6 c 1.108,0 1.957,0.174 2.547,0.522 0.49,0.2846667 0.864667,0.6643333 1.124,1.139 0.258,0.4746667 0.387,1.01 0.387,1.606 0,0.6753333 -0.163333,1.2633333 -0.49,1.764 -0.322,0.5006667 -0.773,0.859333 -1.353,1.076 0.497366,0.116136 0.929314,0.422773 1.203,0.854 0.184,0.28 0.307667,0.572667 0.371,0.878 0.06333,0.305333 0.145,1.004 0.245,2.096 0.074,0.802 0.187333,1.300333 0.34,1.495 l 0.111,0.135 H 11.611 C 11.51142,15.602915 11.444857,15.391748 11.414,15.174 11.37667,14.920667 11.32667,14.335333 11.264,13.418 11.200667,12.6 11,12.035667 10.662,11.725 10.33,11.408333 9.7603333,11.25 8.953,11.25 H 6.683 V 15.8 H 4.16 Z M 6.683,6.219 V 9.4 h 2.413 c 0.7746667,0 1.320333,-0.1106667 1.637,-0.332 0.400667,-0.28 0.601,-0.702 0.601,-1.266 C 11.334,7.254 11.162667,6.8533333 10.82,6.6 10.477333,6.3466667 9.9373333,6.2196667 9.2,6.219 ZM16.108 9.676q-.822-.282-1.265-.927-.435-.644-.435-1.563 0-1.53 1.257-2.441 1.111-.806 2.643-.806 1.74 0 2.844.959 1.047.902 1.047 2.232 0 .925-.443 1.587-.444.66-1.257.959.636.185 1.04.475 1.12.814 1.12 2.377 0 1.795-1.378 2.86-1.161.894-2.981.894-1.975 0-3.142-.983-1.217-1.023-1.217-2.683 0-1.555 1.08-2.409.491-.379 1.087-.531m2.167-3.908q-.773 0-1.248.435-.476.427-.476 1.128 0 .733.476 1.176.483.435 1.289.435t1.273-.435q.467-.434.467-1.184 0-.733-.475-1.144-.468-.41-1.306-.41m-.016 4.794q-.87 0-1.426.54-.548.53-.548 1.37 0 .861.556 1.401.564.54 1.459.54 1.015 0 1.522-.596.492-.572.492-1.322 0-.854-.564-1.401-.54-.532-1.49-.532M31.44 4.221V6.22q-.097.105-.572.653-.66.757-1.313 1.91a13 13 0 0 0-1.015 2.199q-.766 2.2-.927 5.019H25.18q.024-1.33.46-2.949.442-1.62 1.216-3.238 1.103-2.289 2.24-3.408h-5.56V4.22z"/></g><defs><clipPath id="a"><path fill="#fff" d="M0 0h59v20H0z"/></clipPath></defs></svg>