<?xml version="1.0" encoding="UTF-8" standalone="no"?>
<svg
   class="color-immutable"
   width="59"
   height="20"
   fill="none"
   viewBox="0 0 59 20"
   version="1.1"
   id="svg3"
   xmlns="http://www.w3.org/2000/svg"
   xmlns:svg="http://www.w3.org/2000/svg">
  <g
     clip-path="url(#a)"
     id="g2">
    <path
       stroke="#000000"
       d="M 0.5,2 A 1.5,1.5 0 0 1 2,0.5 H 57 A 1.5,1.5 0 0 1 58.5,2 V 18 A 1.5,1.5 0 0 1 57,19.5 H 2 A 1.5,1.5 0 0 1 0.5,18 Z"
       id="path1" />
    <path
       fill="#000000"
       d="m 4.16,4.234 h 5.6 c 1.108,0 1.957,0.174 2.547,0.522 0.49,0.2846667 0.864667,0.6643333 1.124,1.139 0.258,0.4746667 0.387,1.01 0.387,1.606 0,0.6753333 -0.163333,1.2633333 -0.49,1.764 -0.322,0.5006667 -0.773,0.859333 -1.353,1.076 0.497366,0.116136 0.929314,0.422773 1.203,0.854 0.184,0.28 0.307667,0.572667 0.371,0.878 0.06333,0.305333 0.145,1.004 0.245,2.096 0.074,0.802 0.187333,1.300333 0.34,1.495 l 0.111,0.135 H 11.611 C 11.51142,15.602915 11.444857,15.391748 11.414,15.174 11.37667,14.920667 11.32667,14.335333 11.264,13.418 11.200667,12.6 11,12.035667 10.662,11.725 10.33,11.408333 9.7603333,11.25 8.953,11.25 H 6.683 V 15.8 H 4.16 Z M 6.683,6.219 V 9.4 h 2.413 c 0.7746667,0 1.320333,-0.1106667 1.637,-0.332 0.400667,-0.28 0.601,-0.702 0.601,-1.266 C 11.334,7.254 11.162667,6.8533333 10.82,6.6 10.477333,6.3466667 9.9373333,6.2196667 9.2,6.219 Z m 9.58,6.824 h 2.224 c 0.182667,0.913333 0.711667,1.37 1.587,1.37 0.494,0 0.894,-0.166667 1.2,-0.5 0.312,-0.338 0.551,-0.861333 0.717,-1.57 0.108,-0.452 0.186,-0.965333 0.234,-1.54 -0.36,0.505333 -0.730667,0.865333 -1.112,1.08 -0.376,0.21 -0.835,0.314667 -1.377,0.314 -0.864667,0 -1.616667,-0.252333 -2.256,-0.757 -0.456224,-0.367247 -0.815958,-0.840257 -1.048,-1.378 -0.250873,-0.5795853 -0.37694,-1.2054872 -0.37,-1.837 0,-1.326 0.453667,-2.4 1.361,-3.222 0.78,-0.71 1.714667,-1.0646667 2.804,-1.064 0.671333,0 1.291667,0.1503333 1.861,0.451 0.569333,0.3006667 1.047333,0.7276667 1.434,1.281 0.682,0.9833333 1.023,2.364 1.023,4.142 0,1.643333 -0.300667,3.045 -0.902,4.205 -0.784,1.509333 -1.971,2.264 -3.561,2.264 -1.058,0 -1.933333,-0.292667 -2.626,-0.878 -0.688,-0.586667 -1.085667,-1.373333 -1.193,-2.36 M 20.18,5.93 c -0.505333,0 -0.932333,0.2066667 -1.281,0.62 -0.35,0.42 -0.524667,0.952 -0.524,1.596 0,0.52 0.126333,0.982 0.379,1.386 0.343333,0.553333 0.826667,0.83 1.45,0.83 0.564,0 1.015,-0.225667 1.353,-0.677 0.317333,-0.4253333 0.476,-0.9303333 0.476,-1.515 0,-0.618 -0.164,-1.1416667 -0.492,-1.571 C 21.223877,6.1670387 20.715719,5.9172537 20.18,5.93"
       id="path2" />
  </g>
  <defs
     id="defs3">
    <clipPath
       id="a">
      <path
         fill="#ffffff"
         d="M 0,0 H 59 V 20 H 0 Z"
         id="path3" />
    </clipPath>
  </defs>
</svg>
