<svg class="color-immutable" xmlns="http://www.w3.org/2000/svg" width="59" height="20" fill="none" viewBox="0 0 59 20"><g clip-path="url(#a)"><path stroke="#000" d="M.5 2A1.5 1.5 0 0 1 2 .5h55A1.5 1.5 0 0 1 58.5 2v16a1.5 1.5 0 0 1-1.5 1.5H2A1.5 1.5 0 0 1 .5 18z"/><path fill="#000" d="m 4.16,4.234 h 5.6 c 1.108,0 1.957,0.174 2.547,0.522 0.49,0.2846667 0.864667,0.6643333 1.124,1.139 0.258,0.4746667 0.387,1.01 0.387,1.606 0,0.6753333 -0.163333,1.2633333 -0.49,1.764 -0.322,0.5006667 -0.773,0.859333 -1.353,1.076 0.497366,0.116136 0.929314,0.422773 1.203,0.854 0.184,0.28 0.307667,0.572667 0.371,0.878 0.06333,0.305333 0.145,1.004 0.245,2.096 0.074,0.802 0.187333,1.300333 0.34,1.495 l 0.111,0.135 H 11.611 C 11.51142,15.602915 11.444857,15.391748 11.414,15.174 11.37667,14.920667 11.32667,14.335333 11.264,13.418 11.200667,12.6 11,12.035667 10.662,11.725 10.33,11.408333 9.7603333,11.25 8.953,11.25 H 6.683 V 15.8 H 4.16 Z M 6.683,6.219 V 9.4 h 2.413 c 0.7746667,0 1.320333,-0.1106667 1.637,-0.332 0.400667,-0.28 0.601,-0.702 0.601,-1.266 C 11.334,7.254 11.162667,6.8533333 10.82,6.6 10.477333,6.3466667 9.9373333,6.2196667 9.2,6.219 ZM14.263 13.043h2.224q.274 1.37 1.587 1.37.741 0 1.2-.5.468-.507.717-1.57.162-.678.234-1.54-.54.758-1.112 1.08-.564.315-1.377.314-1.297 0-2.256-.757a3.6 3.6 0 0 1-1.048-1.378 4.5 4.5 0 0 1-.37-1.837q0-1.989 1.361-3.222 1.17-1.065 2.804-1.064 1.007 0 1.861.451t1.434 1.281q1.023 1.475 1.023 4.142 0 2.465-.902 4.205-1.176 2.264-3.561 2.264-1.587 0-2.626-.878-1.032-.88-1.193-2.36M18.18 5.93q-.758 0-1.281.62-.525.63-.524 1.596 0 .78.379 1.386.515.83 1.45.83.846 0 1.353-.677.476-.638.476-1.515 0-.927-.492-1.571a1.64 1.64 0 0 0-1.361-.669M25.293 9.676q-.822-.282-1.265-.927-.435-.644-.435-1.563 0-1.53 1.257-2.441 1.111-.806 2.642-.806 1.74 0 2.844.959 1.048.902 1.048 2.232 0 .925-.444 1.587-.443.66-1.256.959.636.185 1.039.475 1.12.814 1.12 2.377 0 1.795-1.378 2.86-1.16.894-2.98.894-1.975 0-3.143-.983-1.216-1.023-1.216-2.683 0-1.555 1.08-2.409.491-.379 1.087-.531m2.167-3.908q-.774 0-1.249.435-.475.427-.475 1.128 0 .733.475 1.176.483.435 1.29.435.804 0 1.272-.435.468-.434.468-1.184 0-.733-.476-1.144-.466-.41-1.305-.41m-.016 4.794q-.87 0-1.426.54-.548.53-.548 1.37 0 .861.556 1.401.564.54 1.458.54 1.016 0 1.523-.596.49-.572.491-1.322 0-.854-.564-1.401-.54-.532-1.49-.532"/></g><defs><clipPath id="a"><path fill="#fff" d="M0 0h59v20H0z"/></clipPath></defs></svg>